name Run_400 01_newCOP3_v24.mot
datacolumns 19
datarows 27
range 2.90000000 2.92708300
endheader
                time	   R_ground_force_vx	   R_ground_force_vy	   R_ground_force_vz	   R_ground_force_px	   R_ground_force_py	   R_ground_force_pz	   L_ground_force_vx	   L_ground_force_vy	   L_ground_force_vz	   L_ground_force_px	   L_ground_force_py	   L_ground_force_pz	   R_ground_torque_x	   R_ground_torque_y	   R_ground_torque_z	   L_ground_torque_x	   L_ground_torque_y	   L_ground_torque_z	
          2.90000000	         63.68680600	         91.12609100	          4.19087900	          0.36628200	          0.00000000	         -0.30016100	          0.00000000	          0.00000000	          0.00000000	          0.00000000	          0.00000000	          0.00000000	          0.00000000	         -2.07146100	          0.00000000	          0.00000000	          0.00000000	          0.00000000	
          2.90104200	         59.74947000	         84.30909700	          4.02977300	          0.36719800	          0.00000000	         -0.29780900	          0.00000000	          0.00000000	          0.00000000	          0.00000000	          0.00000000	          0.00000000	          0.00000000	         -2.03136300	          0.00000000	          0.00000000	          0.00000000	          0.00000000	
          2.90208300	         55.90350000	         77.86013000	          3.86994800	          0.36837900	          0.00000000	         -0.29533000	          0.00000000	          0.00000000	          0.00000000	          0.00000000	          0.00000000	          0.00000000	          0.00000000	         -1.99096400	          0.00000000	          0.00000000	          0.00000000	          0.00000000	
          2.90312500	         52.15964500	         71.77028700	          3.71197800	          0.36985200	          0.00000000	         -0.29271600	          0.00000000	          0.00000000	          0.00000000	          0.00000000	          0.00000000	          0.00000000	          0.00000000	         -1.95049600	          0.00000000	          0.00000000	          0.00000000	          0.00000000	
          2.90416700	         48.52877000	         66.03118900	          3.55650800	          0.37165000	          0.00000000	         -0.28995300	          0.00000000	          0.00000000	          0.00000000	          0.00000000	          0.00000000	          0.00000000	          0.00000000	         -1.91018100	          0.00000000	          0.00000000	          0.00000000	          0.00000000	
          2.90520800	         45.02156800	         60.63492600	          3.40423600	          0.37381500	          0.00000000	         -0.28702600	          0.00000000	          0.00000000	          0.00000000	          0.00000000	          0.00000000	          0.00000000	          0.00000000	         -1.87023100	          0.00000000	          0.00000000	          0.00000000	          0.00000000	
          2.90625000	         41.64824700	         55.57392500	          3.25590500	          0.37640100	          0.00000000	         -0.28391100	          0.00000000	          0.00000000	          0.00000000	          0.00000000	          0.00000000	          0.00000000	          0.00000000	         -1.83084700	          0.00000000	          0.00000000	          0.00000000	          0.00000000	
          2.90729200	         38.41822400	         50.84084300	          3.11227600	          0.37946800	          0.00000000	         -0.28058100	          0.00000000	          0.00000000	          0.00000000	          0.00000000	          0.00000000	          0.00000000	          0.00000000	         -1.79221800	          0.00000000	          0.00000000	          0.00000000	          0.00000000	
          2.90833300	         35.33982800	         46.42839400	          2.97411500	          0.38308800	          0.00000000	         -0.27700100	          0.00000000	          0.00000000	          0.00000000	          0.00000000	          0.00000000	          0.00000000	          0.00000000	         -1.75452200	          0.00000000	          0.00000000	          0.00000000	          0.00000000	
          2.90937500	         32.42004400	         42.32920100	          2.84216400	          0.38734400	          0.00000000	         -0.27312900	          0.00000000	          0.00000000	          0.00000000	          0.00000000	          0.00000000	          0.00000000	          0.00000000	         -1.71792500	          0.00000000	          0.00000000	          0.00000000	          0.00000000	
          2.91041700	         29.66430500	         38.53564100	          2.71712500	          0.39232600	          0.00000000	         -0.26891200	          0.00000000	          0.00000000	          0.00000000	          0.00000000	          0.00000000	          0.00000000	          0.00000000	         -1.68258000	          0.00000000	          0.00000000	          0.00000000	          0.00000000	
          2.91145800	         27.07634000	         35.03968000	          2.59963600	          0.39812700	          0.00000000	         -0.26429100	          0.00000000	          0.00000000	          0.00000000	          0.00000000	          0.00000000	          0.00000000	          0.00000000	         -1.64862700	          0.00000000	          0.00000000	          0.00000000	          0.00000000	
          2.91250000	         24.65812700	         31.83272700	          2.49024900	          0.40484300	          0.00000000	         -0.25919700	          0.00000000	          0.00000000	          0.00000000	          0.00000000	          0.00000000	          0.00000000	          0.00000000	         -1.61619400	          0.00000000	          0.00000000	          0.00000000	          0.00000000	
          2.91354200	         22.40987200	         28.90551000	          2.38941600	          0.41256100	          0.00000000	         -0.25355500	          0.00000000	          0.00000000	          0.00000000	          0.00000000	          0.00000000	          0.00000000	          0.00000000	         -1.58539200	          0.00000000	          0.00000000	          0.00000000	          0.00000000	
          2.91458300	         20.33008400	         26.24795900	          2.29747500	          0.42134900	          0.00000000	         -0.24728400	          0.00000000	          0.00000000	          0.00000000	          0.00000000	          0.00000000	          0.00000000	          0.00000000	         -1.55632300	          0.00000000	          0.00000000	          0.00000000	          0.00000000	
          2.91562500	         18.41568900	         23.84913800	          2.21463600	          0.43124500	          0.00000000	         -0.24030200	          0.00000000	          0.00000000	          0.00000000	          0.00000000	          0.00000000	          0.00000000	          0.00000000	         -1.52907200	          0.00000000	          0.00000000	          0.00000000	          0.00000000	
          2.91666700	         16.66219100	         21.69719100	          2.14097700	          0.44223900	          0.00000000	         -0.23253100	          0.00000000	          0.00000000	          0.00000000	          0.00000000	          0.00000000	          0.00000000	          0.00000000	         -1.50371000	          0.00000000	          0.00000000	          0.00000000	          0.00000000	
          2.91770800	         15.06384100	         19.77932500	          2.07644200	          0.45425300	          0.00000000	         -0.22390700	          0.00000000	          0.00000000	          0.00000000	          0.00000000	          0.00000000	          0.00000000	          0.00000000	         -1.48029600	          0.00000000	          0.00000000	          0.00000000	          0.00000000	
          2.91875000	         13.61384000	         18.08184800	          2.02083900	          0.46713000	          0.00000000	         -0.21438900	          0.00000000	          0.00000000	          0.00000000	          0.00000000	          0.00000000	          0.00000000	          0.00000000	         -1.45887300	          0.00000000	          0.00000000	          0.00000000	          0.00000000	
          2.91979200	         12.30451300	         16.59021600	          1.97385200	          0.48061100	          0.00000000	         -0.20396900	          0.00000000	          0.00000000	          0.00000000	          0.00000000	          0.00000000	          0.00000000	          0.00000000	         -1.43947100	          0.00000000	          0.00000000	          0.00000000	          0.00000000	
          2.92083300	         11.12749100	         15.28913500	          1.93504500	          0.49434000	          0.00000000	         -0.19267800	          0.00000000	          0.00000000	          0.00000000	          0.00000000	          0.00000000	          0.00000000	          0.00000000	         -1.42210500	          0.00000000	          0.00000000	          0.00000000	          0.00000000	
          2.92187500	         10.07385900	         14.16270000	          1.90387800	          0.50786500	          0.00000000	         -0.18060100	          0.00000000	          0.00000000	          0.00000000	          0.00000000	          0.00000000	          0.00000000	          0.00000000	         -1.40677800	          0.00000000	          0.00000000	          0.00000000	          0.00000000	
          2.92291700	          9.13430500	         13.19454600	          1.87972300	          0.52066300	          0.00000000	         -0.16786700	          0.00000000	          0.00000000	          0.00000000	          0.00000000	          0.00000000	          0.00000000	          0.00000000	         -1.39347800	          0.00000000	          0.00000000	          0.00000000	          0.00000000	
          2.92395800	          8.29923200	         12.36804200	          1.86188100	          0.53217600	          0.00000000	         -0.15465100	          0.00000000	          0.00000000	          0.00000000	          0.00000000	          0.00000000	          0.00000000	          0.00000000	         -1.38217900	          0.00000000	          0.00000000	          0.00000000	          0.00000000	
          2.92500000	          7.55887800	         11.66649700	          1.84960500	          0.54185900	          0.00000000	         -0.14115800	          0.00000000	          0.00000000	          0.00000000	          0.00000000	          0.00000000	          0.00000000	          0.00000000	         -1.37284300	          0.00000000	          0.00000000	          0.00000000	          0.00000000	
          2.92604200	          6.90342500	         11.07338300	          1.84211700	          0.54923300	          0.00000000	         -0.12760300	          0.00000000	          0.00000000	          0.00000000	          0.00000000	          0.00000000	          0.00000000	          0.00000000	         -1.36542000	          0.00000000	          0.00000000	          0.00000000	          0.00000000	
          2.92708300	          6.32310300	         10.57256200	          1.83863300	          0.55392400	          0.00000000	         -0.11418900	          0.00000000	          0.00000000	          0.00000000	          0.00000000	          0.00000000	          0.00000000	          0.00000000	         -1.35984500	          0.00000000	          0.00000000	          0.00000000	          0.00000000	
